<svg width="1586" height="243" viewBox="0 0 1586 243" fill="none" xmlns="http://www.w3.org/2000/svg">
<path opacity="0.8" d="M129.684 239.998H114.81C112.206 240.031 109.622 239.552 107.207 238.589C104.792 237.625 102.595 236.196 100.742 234.385C98.889 232.574 97.4179 230.417 96.414 228.038C95.41 225.66 94.8931 223.107 94.8933 220.53V208.05C89.6696 206.277 84.609 204.064 79.7669 201.435L70.691 210.546C66.9178 214.101 61.9081 216.084 56.699 216.084C51.4899 216.084 46.4802 214.101 42.707 210.546L31.8664 200.187C28.1663 196.506 26.0827 191.528 26.0679 186.335C26.1022 181.182 28.1854 176.25 31.8664 172.607L41.5725 163.995C38.947 159.149 36.8348 154.047 35.2698 148.77H22.6644C17.4491 148.77 12.4474 146.719 8.75958 143.068C5.07178 139.416 3 134.464 3 129.301V114.075C3 108.912 5.07178 103.96 8.75958 100.309C12.4474 96.6579 17.4491 94.6067 22.6644 94.6067H35.2698C36.8676 89.3414 38.9784 84.2422 41.5725 79.3811L32.3706 70.1459C30.5612 68.3902 29.1267 66.2923 28.1523 63.9769C27.1779 61.6615 26.6833 59.1759 26.6981 56.6676C26.6704 54.0906 27.1699 51.5348 28.1664 49.1541C29.1629 46.7733 30.6359 44.6169 32.4966 42.8148L42.707 32.5812C44.5784 30.6939 46.8164 29.2013 49.2861 28.1932C51.7558 27.1851 54.406 26.6825 57.0771 26.7156C59.6509 26.6816 62.2052 27.1614 64.5875 28.1263C66.9698 29.0912 69.1314 30.5214 70.9431 32.3316L80.145 41.3172C84.8938 38.9382 89.8253 36.9352 94.8933 35.3268V22.8468C94.8419 20.227 95.3252 17.6239 96.3143 15.1934C97.3033 12.7629 98.7777 10.5551 100.649 8.70227C102.521 6.84943 104.751 5.38967 107.206 4.41048C109.66 3.43128 112.29 2.95279 114.936 3.00367H129.684C134.9 3.00367 139.901 5.05484 143.589 8.70594C147.277 12.357 149.349 17.309 149.349 22.4724V34.9524C154.638 36.5556 159.749 38.6882 164.601 41.3172L173.929 32.2068C177.737 28.7691 182.705 26.8635 187.858 26.8635C193.012 26.8635 197.979 28.7691 201.787 32.2068L212.124 42.3156C213.957 44.1243 215.411 46.2735 216.404 48.64C217.396 51.0064 217.907 53.5436 217.907 56.106C217.907 58.6683 217.396 61.2055 216.404 63.572C215.411 65.9384 213.957 68.0876 212.124 69.8963L202.796 79.2563C205.451 84.0607 207.605 89.1204 209.224 94.3571H221.83C224.476 94.2897 227.108 94.7518 229.569 95.7157C232.03 96.6796 234.269 98.1254 236.153 99.9666C238.036 101.808 239.524 104.006 240.529 106.431C241.533 108.855 242.033 111.455 241.998 114.075V128.677C241.998 133.84 239.927 138.792 236.239 142.444C232.551 146.095 227.549 148.146 222.334 148.146H209.729C208.027 153.632 205.79 158.94 203.048 163.995L212.124 173.106C213.953 174.904 215.405 177.042 216.396 179.399C217.386 181.755 217.897 184.282 217.897 186.834C217.897 189.386 217.386 191.913 216.396 194.269C215.405 196.625 213.953 198.764 212.124 200.562L201.661 210.92C197.909 214.467 192.92 216.447 187.732 216.447C182.544 216.447 177.555 214.467 173.803 210.92L164.727 201.435C159.817 204.004 154.667 206.093 149.349 207.675V220.155C149.399 222.743 148.927 225.315 147.962 227.721C146.996 230.126 145.556 232.317 143.725 234.164C141.893 236.012 139.709 237.48 137.298 238.481C134.887 239.483 132.299 239.999 129.684 239.998ZM77.75 185.835L81.9098 188.207C88.4801 192.048 95.5678 194.947 102.961 196.818L107.751 198.066V220.53C107.751 222.383 108.495 224.161 109.818 225.471C111.142 226.782 112.938 227.518 114.81 227.518H129.684C131.556 227.518 133.352 226.782 134.676 225.471C136 224.161 136.743 222.383 136.743 220.53V198.066L141.533 196.818C148.933 194.969 156.024 192.068 162.584 188.207L166.87 185.835L183.131 201.435C183.777 202.115 184.559 202.655 185.427 203.02C186.295 203.386 187.23 203.568 188.173 203.557C189.087 203.575 189.995 203.407 190.84 203.063C191.686 202.72 192.451 202.208 193.089 201.56L203.678 191.202C204.994 189.892 205.733 188.12 205.733 186.272C205.733 184.425 204.994 182.652 203.678 181.343L187.795 165.368L190.316 161.25C194.187 154.755 197.075 147.733 198.888 140.408L200.022 135.666H222.838C224.71 135.666 226.506 134.93 227.83 133.619C229.153 132.308 229.897 130.531 229.897 128.677V114.075C229.897 112.222 229.153 110.444 227.83 109.134C226.506 107.823 224.71 107.087 222.838 107.087H199.392L198.258 102.219C196.477 94.9825 193.54 88.0732 189.56 81.7523L186.913 77.5091L203.174 61.41C204.498 60.0791 205.24 58.286 205.24 56.418C205.24 54.5499 204.498 52.7568 203.174 51.426L192.837 41.1924C191.438 39.9895 189.648 39.3272 187.795 39.3272C185.942 39.3272 184.152 39.9895 182.753 41.1924L166.492 57.4164L162.332 54.7956C155.925 50.8108 148.898 47.9013 141.533 46.1844L136.743 45.0612V22.4724C136.743 20.6189 136 18.8413 134.676 17.5306C133.352 16.22 131.556 15.4836 129.684 15.4836H114.936C113.064 15.4836 111.268 16.22 109.944 17.5306C108.621 18.8413 107.877 20.6189 107.877 22.4724V45.0612L103.087 46.1844C95.7414 47.9593 88.7229 50.8651 82.2879 54.7956L78.0021 57.2916L61.7411 41.3172C60.5257 40.0345 58.8519 39.2732 57.0771 39.1956C55.1781 39.1549 53.3331 39.8232 51.9089 41.0676L41.4465 51.6756C40.7713 52.3243 40.2339 53.1001 39.8659 53.9574C39.4979 54.8146 39.3067 55.7361 39.3035 56.6676C39.3293 58.4475 40.0524 60.1479 41.3204 61.41L57.0771 77.6339L54.43 81.8771C50.5024 88.225 47.5699 95.1258 45.7323 102.344L44.5978 107.211H22.1602C20.288 107.211 18.4925 107.948 17.1687 109.258C15.8449 110.569 15.1012 112.347 15.1012 114.2V128.802C15.1012 130.655 15.8449 132.433 17.1687 133.744C18.4925 135.054 20.288 135.791 22.1602 135.791H44.4718L45.7323 140.533C47.545 147.858 50.4329 154.88 54.304 161.375L56.699 165.493L41.3204 181.467C40.6368 182.083 40.0925 182.835 39.7232 183.674C39.3539 184.513 39.1679 185.42 39.1775 186.335C39.2049 188.249 39.9717 190.08 41.3204 191.451L51.7829 201.56C52.4098 202.231 53.1704 202.766 54.0165 203.131C54.8626 203.496 55.776 203.683 56.699 203.682C57.631 203.695 58.5564 203.525 59.4218 203.183C60.2872 202.84 61.0755 202.331 61.7411 201.685L77.75 185.835Z" fill="#2A9D84" stroke="#2A9D84" stroke-width="5"/>
<path d="M66.8001 129.036C66.8001 127.169 67.5271 125.378 68.8211 124.058C70.1151 122.738 71.8701 121.996 73.7001 121.996H87.5001C89.3301 121.996 91.0852 122.738 92.3792 124.058C93.6732 125.378 94.4001 127.169 94.4001 129.036V164.239C94.4001 166.107 93.6732 167.897 92.3792 169.218C91.0852 170.538 89.3301 171.28 87.5001 171.28H73.7001C71.8701 171.28 70.1151 170.538 68.8211 169.218C67.5271 167.897 66.8001 166.107 66.8001 164.239V129.036ZM108.2 100.874C108.2 99.0068 108.927 97.216 110.221 95.8956C111.515 94.5752 113.27 93.8335 115.1 93.8335H128.9C130.73 93.8335 132.485 94.5752 133.779 95.8956C135.073 97.216 135.8 99.0068 135.8 100.874V164.239C135.8 166.107 135.073 167.897 133.779 169.218C132.485 170.538 130.73 171.28 128.9 171.28H115.1C113.27 171.28 111.515 170.538 110.221 169.218C108.927 167.897 108.2 166.107 108.2 164.239V100.874ZM149.6 79.7523C149.6 77.885 150.327 76.0942 151.621 74.7739C152.915 73.4535 154.67 72.7117 156.5 72.7117H170.3C172.13 72.7117 173.885 73.4535 175.179 74.7739C176.473 76.0942 177.2 77.885 177.2 79.7523V164.239C177.2 166.107 176.473 167.897 175.179 169.218C173.885 170.538 172.13 171.28 170.3 171.28H156.5C154.67 171.28 152.915 170.538 151.621 169.218C150.327 167.897 149.6 166.107 149.6 164.239V79.7523Z" fill="#E9C46A"/>
<path d="M367.24 143.78L348.115 94.225C347.548 92.7517 346.953 91.0517 346.33 89.125C345.707 87.1417 345.112 85.045 344.545 82.835C343.355 87.425 342.137 91.25 340.89 94.31L321.765 143.78H367.24ZM401.58 189H388.83C387.357 189 386.167 188.632 385.26 187.895C384.353 187.158 383.673 186.223 383.22 185.09L371.83 155.68H317.175L305.785 185.09C305.445 186.11 304.793 187.017 303.83 187.81C302.867 188.603 301.677 189 300.26 189H287.51L336.215 67.195H352.875L401.58 189ZM499.96 163.84C500.866 163.84 501.66 164.208 502.34 164.945L508.885 172C503.898 177.78 497.835 182.285 490.695 185.515C483.611 188.745 475.026 190.36 464.94 190.36C456.213 190.36 448.28 188.858 441.14 185.855C434 182.795 427.908 178.545 422.865 173.105C417.821 167.608 413.911 161.035 411.135 153.385C408.358 145.735 406.97 137.32 406.97 128.14C406.97 118.96 408.415 110.545 411.305 102.895C414.195 95.245 418.246 88.6717 423.46 83.175C428.73 77.6783 435.02 73.4283 442.33 70.425C449.64 67.365 457.715 65.835 466.555 65.835C475.225 65.835 482.875 67.2233 489.505 70C496.135 72.7767 501.971 76.545 507.015 81.305L501.575 88.87C501.235 89.4367 500.781 89.9183 500.215 90.315C499.705 90.655 498.996 90.825 498.09 90.825C497.07 90.825 495.823 90.2867 494.35 89.21C492.876 88.0767 490.95 86.83 488.57 85.47C486.19 84.11 483.215 82.8917 479.645 81.815C476.075 80.6817 471.683 80.115 466.47 80.115C460.18 80.115 454.428 81.22 449.215 83.43C444.001 85.5833 439.496 88.7283 435.7 92.865C431.96 97.0017 429.041 102.045 426.945 107.995C424.848 113.945 423.8 120.66 423.8 128.14C423.8 135.733 424.876 142.505 427.03 148.455C429.24 154.405 432.215 159.448 435.955 163.585C439.751 167.665 444.2 170.782 449.3 172.935C454.456 175.088 460.01 176.165 465.96 176.165C469.586 176.165 472.845 175.967 475.735 175.57C478.681 175.117 481.373 174.437 483.81 173.53C486.303 172.623 488.598 171.49 490.695 170.13C492.848 168.713 494.973 167.042 497.07 165.115C498.033 164.265 498.996 163.84 499.96 163.84ZM611.19 163.84C612.097 163.84 612.89 164.208 613.57 164.945L620.115 172C615.128 177.78 609.065 182.285 601.925 185.515C594.842 188.745 586.257 190.36 576.17 190.36C567.443 190.36 559.51 188.858 552.37 185.855C545.23 182.795 539.138 178.545 534.095 173.105C529.052 167.608 525.142 161.035 522.365 153.385C519.588 145.735 518.2 137.32 518.2 128.14C518.2 118.96 519.645 110.545 522.535 102.895C525.425 95.245 529.477 88.6717 534.69 83.175C539.96 77.6783 546.25 73.4283 553.56 70.425C560.87 67.365 568.945 65.835 577.785 65.835C586.455 65.835 594.105 67.2233 600.735 70C607.365 72.7767 613.202 76.545 618.245 81.305L612.805 88.87C612.465 89.4367 612.012 89.9183 611.445 90.315C610.935 90.655 610.227 90.825 609.32 90.825C608.3 90.825 607.053 90.2867 605.58 89.21C604.107 88.0767 602.18 86.83 599.8 85.47C597.42 84.11 594.445 82.8917 590.875 81.815C587.305 80.6817 582.913 80.115 577.7 80.115C571.41 80.115 565.658 81.22 560.445 83.43C555.232 85.5833 550.727 88.7283 546.93 92.865C543.19 97.0017 540.272 102.045 538.175 107.995C536.078 113.945 535.03 120.66 535.03 128.14C535.03 135.733 536.107 142.505 538.26 148.455C540.47 154.405 543.445 159.448 547.185 163.585C550.982 167.665 555.43 170.782 560.53 172.935C565.687 175.088 571.24 176.165 577.19 176.165C580.817 176.165 584.075 175.967 586.965 175.57C589.912 175.117 592.603 174.437 595.04 173.53C597.533 172.623 599.828 171.49 601.925 170.13C604.078 168.713 606.203 167.042 608.3 165.115C609.263 164.265 610.227 163.84 611.19 163.84ZM749.45 128.14C749.45 137.263 748.005 145.65 745.115 153.3C742.225 160.893 738.145 167.438 732.875 172.935C727.605 178.432 721.259 182.71 713.835 185.77C706.469 188.773 698.309 190.275 689.355 190.275C680.402 190.275 672.242 188.773 664.875 185.77C657.509 182.71 651.19 178.432 645.92 172.935C640.65 167.438 636.57 160.893 633.68 153.3C630.79 145.65 629.345 137.263 629.345 128.14C629.345 119.017 630.79 110.658 633.68 103.065C636.57 95.415 640.65 88.8417 645.92 83.345C651.19 77.7917 657.509 73.485 664.875 70.425C672.242 67.365 680.402 65.835 689.355 65.835C698.309 65.835 706.469 67.365 713.835 70.425C721.259 73.485 727.605 77.7917 732.875 83.345C738.145 88.8417 742.225 95.415 745.115 103.065C748.005 110.658 749.45 119.017 749.45 128.14ZM732.535 128.14C732.535 120.66 731.515 113.945 729.475 107.995C727.435 102.045 724.545 97.03 720.805 92.95C717.065 88.8133 712.532 85.64 707.205 83.43C701.879 81.22 695.929 80.115 689.355 80.115C682.839 80.115 676.917 81.22 671.59 83.43C666.264 85.64 661.702 88.8133 657.905 92.95C654.165 97.03 651.275 102.045 649.235 107.995C647.195 113.945 646.175 120.66 646.175 128.14C646.175 135.62 647.195 142.335 649.235 148.285C651.275 154.178 654.165 159.193 657.905 163.33C661.702 167.41 666.264 170.555 671.59 172.765C676.917 174.918 682.839 175.995 689.355 175.995C695.929 175.995 701.879 174.918 707.205 172.765C712.532 170.555 717.065 167.41 720.805 163.33C724.545 159.193 727.435 154.178 729.475 148.285C731.515 142.335 732.535 135.62 732.535 128.14ZM899.778 67.195V189H885.328V99.495C885.328 98.305 885.357 97.03 885.413 95.67C885.527 94.31 885.64 92.9217 885.753 91.505L843.933 167.665C842.63 170.215 840.647 171.49 837.983 171.49H835.603C832.94 171.49 830.957 170.215 829.653 167.665L786.983 91.165C787.323 94.1683 787.493 96.945 787.493 99.495V189H773.043V67.195H785.198C786.672 67.195 787.805 67.3367 788.598 67.62C789.392 67.9033 790.157 68.6967 790.893 70L832.968 144.97C833.648 146.33 834.3 147.747 834.923 149.22C835.603 150.693 836.227 152.195 836.793 153.725C837.36 152.195 837.955 150.693 838.578 149.22C839.202 147.69 839.882 146.245 840.618 144.885L881.928 70C882.608 68.6967 883.345 67.9033 884.138 67.62C884.988 67.3367 886.15 67.195 887.623 67.195H899.778ZM995.609 143.78L976.484 94.225C975.917 92.7517 975.322 91.0517 974.699 89.125C974.076 87.1417 973.481 85.045 972.914 82.835C971.724 87.425 970.506 91.25 969.259 94.31L950.134 143.78H995.609ZM1029.95 189H1017.2C1015.73 189 1014.54 188.632 1013.63 187.895C1012.72 187.158 1012.04 186.223 1011.59 185.09L1000.2 155.68H945.544L934.154 185.09C933.814 186.11 933.162 187.017 932.199 187.81C931.236 188.603 930.046 189 928.629 189H915.879L964.584 67.195H981.244L1029.95 189ZM1116.38 81.05H1076.94V189H1060.54V81.05H1021.01V67.195H1116.38V81.05ZM1150.95 189H1134.46V67.195H1150.95V189ZM1267.62 163.84C1268.52 163.84 1269.32 164.208 1270 164.945L1276.54 172C1271.55 177.78 1265.49 182.285 1258.35 185.515C1251.27 188.745 1242.68 190.36 1232.6 190.36C1223.87 190.36 1215.94 188.858 1208.8 185.855C1201.66 182.795 1195.56 178.545 1190.52 173.105C1185.48 167.608 1181.57 161.035 1178.79 153.385C1176.01 145.735 1174.63 137.32 1174.63 128.14C1174.63 118.96 1176.07 110.545 1178.96 102.895C1181.85 95.245 1185.9 88.6717 1191.12 83.175C1196.39 77.6783 1202.68 73.4283 1209.99 70.425C1217.3 67.365 1225.37 65.835 1234.21 65.835C1242.88 65.835 1250.53 67.2233 1257.16 70C1263.79 72.7767 1269.63 76.545 1274.67 81.305L1269.23 88.87C1268.89 89.4367 1268.44 89.9183 1267.87 90.315C1267.36 90.655 1266.65 90.825 1265.75 90.825C1264.73 90.825 1263.48 90.2867 1262.01 89.21C1260.53 88.0767 1258.61 86.83 1256.23 85.47C1253.85 84.11 1250.87 82.8917 1247.3 81.815C1243.73 80.6817 1239.34 80.115 1234.13 80.115C1227.84 80.115 1222.08 81.22 1216.87 83.43C1211.66 85.5833 1207.15 88.7283 1203.36 92.865C1199.62 97.0017 1196.7 102.045 1194.6 107.995C1192.5 113.945 1191.46 120.66 1191.46 128.14C1191.46 135.733 1192.53 142.505 1194.69 148.455C1196.9 154.405 1199.87 159.448 1203.61 163.585C1207.41 167.665 1211.86 170.782 1216.96 172.935C1222.11 175.088 1227.67 176.165 1233.62 176.165C1237.24 176.165 1240.5 175.967 1243.39 175.57C1246.34 175.117 1249.03 174.437 1251.47 173.53C1253.96 172.623 1256.25 171.49 1258.35 170.13C1260.5 168.713 1262.63 167.042 1264.73 165.115C1265.69 164.265 1266.65 163.84 1267.62 163.84Z" fill="#264653"/>
</svg>
